<?xml version="1.0" encoding="UTF-8" standalone="no"?>
<svg
        width="32"
        height="32"
        version="1.1"
        id="svg1"
        xmlns:inkscape="http://www.inkscape.org/namespaces/inkscape"
        xmlns:sodipodi="http://sodipodi.sourceforge.net/DTD/sodipodi-0.dtd"
        xmlns="http://www.w3.org/2000/svg">
    <defs
            id="defs1"/>
    <sodipodi:namedview
            id="namedview1"
            pagecolor="#ffffff"
            bordercolor="#000000"
            borderopacity="0.25"
            inkscape:showpageshadow="2"
            inkscape:pageopacity="0.0"
            inkscape:pagecheckerboard="0"
            inkscape:deskcolor="#d1d1d1"
            inkscape:zoom="30.317203"
            inkscape:cx="18.256961"
            inkscape:cy="16.426317"
            inkscape:window-width="1600"
            inkscape:window-height="930"
            inkscape:window-x="-6"
            inkscape:window-y="-6"
            inkscape:window-maximized="1"
            inkscape:current-layer="Layer_1"/>
    <g
            id="Layer_1"
            transform="rotate(90,15.024429,15.005559)">
        <title
                id="title1">Layer 1
        </title>
        <path
                id="svg_1"
                d="m 13.819565,26.049074 c 8.12321,-7.707802 7.77705,-16.4325411 0.209566,-23.3811545"
                stroke-width="3.09613"
                stroke="#000000"
                fill="none"/>
        <path
                stroke-width="1.54807"
                id="svg_2"
                d="M 12.562247,3.9704241 11.774114,0.39156991 15.314715,1.1699193 13.340198,2.3648146 15.445043,3.9227476 14.926408,4.2674929 13.250365,1.9179303 Z"
                stroke="#000000"
                fill="none"
                sodipodi:nodetypes="cccccccc"/>
        <path
                stroke-width="1.54807"
                id="svg_5"
                d="m 15.720131,26.954474 -3.436594,1.009986 0.637177,-3.653538 0.823545,2.277133 1.532008,-2.634764 0.591588,0.695069 -2.092749,1.579259 z"
                stroke="#000000"
                fill="none"
                sodipodi:nodetypes="cccccccc"/>
        <path
                style="fill:#ffffff;stroke-width:0.0329846"
                d="M 14.694627,21.271454 C 14.184922,21.225424 13.374052,21.094084 12.786711,20.96242 9.8651271,20.30749 6.9469021,18.684332 4.2776783,16.229574 4.0361644,16.007466 3.8349989,15.830994 3.8306436,15.837414 c -0.00436,0.0064 -0.1915909,0.505544 -0.4160792,1.109165 -0.2244884,0.60362 -0.4187966,1.08602 -0.4317962,1.071999 -0.028436,-0.03067 -1.9815637,-6.678055 -1.9665506,-6.693068 0.00975,-0.0097 7.5133272,1.2921 7.5848776,1.31595 0.017831,0.0059 -0.5594028,0.22375 -1.2827417,0.484014 -0.7233385,0.260264 -1.3212548,0.478504 -1.3287027,0.484978 -0.023417,0.02036 0.099334,0.142101 0.5412947,0.536851 2.5839118,2.307897 5.1279385,3.598677 7.9162975,4.016545 0.57096,0.08556 2.33217,0.08552 2.902642,-7e-5 2.813804,-0.422177 5.267856,-1.708111 7.800852,-4.087678 0.687357,-0.645723 0.779799,-0.743012 0.740439,-0.779259 -0.0172,-0.01584 -0.602728,-0.218047 -1.301177,-0.44935 -0.698448,-0.231303 -1.280874,-0.430406 -1.294279,-0.442451 -0.0204,-0.01833 7.296373,-1.651553 7.322804,-1.634571 0.0079,0.0051 -1.344547,6.191655 -1.405301,6.428404 -0.02302,0.08969 -0.06066,0.03705 -0.542611,-0.758645 -0.284834,-0.47026 -0.531495,-0.876026 -0.548136,-0.901704 -0.02338,-0.03607 -0.164017,0.08104 -0.61866,0.515159 -0.924744,0.883003 -1.452617,1.336808 -2.224464,1.912342 -2.115723,1.577607 -4.328266,2.607758 -6.577099,3.062272 -1.02518,0.2072 -1.467447,0.251667 -2.622274,0.263651 -0.571457,0.0059 -1.194866,-0.0033 -1.385352,-0.02049 z"
                id="path1"
                transform="rotate(-90,15.024429,15.005559)"/>
    </g>
</svg>
